<svg width="1280" height="720" viewBox="0 0 1280 720" fill="none" xmlns="http://www.w3.org/2000/svg">
  <defs>
    <linearGradient id="bg" x1="120" y1="80" x2="1110" y2="700" gradientUnits="userSpaceOnUse">
      <stop stop-color="#3271D6"/>
      <stop offset="0.48" stop-color="#65C9DE"/>
      <stop offset="1" stop-color="#AABFD1"/>
    </linearGradient>
    <radialGradient id="shine" cx="0" cy="0" r="1" gradientUnits="userSpaceOnUse" gradientTransform="translate(205 150) rotate(43) scale(310 220)">
      <stop stop-color="white" stop-opacity="0.82"/>
      <stop offset="1" stop-color="white" stop-opacity="0"/>
    </radialGradient>
    <filter id="blurShadow" x="-20%" y="-20%" width="140%" height="140%">
      <feDropShadow dx="0" dy="28" stdDeviation="32" flood-color="#17477D" flood-opacity="0.28"/>
    </filter>
    <linearGradient id="glass" x1="250" y1="95" x2="1040" y2="600" gradientUnits="userSpaceOnUse">
      <stop stop-color="white" stop-opacity="0.34"/>
      <stop offset="0.45" stop-color="#C4EBFF" stop-opacity="0.2"/>
      <stop offset="1" stop-color="white" stop-opacity="0.16"/>
    </linearGradient>
  </defs>

  <rect width="1280" height="720" rx="28" fill="url(#bg)"/>
  <rect width="1280" height="720" rx="28" fill="url(#shine)"/>
  <circle cx="1020" cy="92" r="250" fill="#7FF0E4" fill-opacity="0.28"/>
  <circle cx="350" cy="626" r="360" fill="#286DD2" fill-opacity="0.28"/>

  <g opacity="0.18">
    <path d="M0 120H1280M0 240H1280M0 360H1280M0 480H1280M0 600H1280" stroke="white"/>
    <path d="M160 0V720M320 0V720M480 0V720M640 0V720M800 0V720M960 0V720M1120 0V720" stroke="white"/>
  </g>

  <g font-family="Segoe UI, Microsoft YaHei, sans-serif" fill="white">
    <g transform="translate(52 44)" opacity="0.92">
      <circle cx="8" cy="8" r="7" fill="white" fill-opacity="0.28" stroke="white" stroke-opacity="0.72"/>
      <text x="26" y="13" font-size="15" font-weight="800" letter-spacing="2">AIOS</text>
    </g>
    <g transform="translate(1030 44)" opacity="0.82" font-size="15" font-weight="700">
      <text x="0" y="13">Wi-Fi</text>
      <text x="62" y="13">82%</text>
      <text x="116" y="13">09:41</text>
    </g>
  </g>

  <g filter="url(#blurShadow)">
    <rect x="54" y="168" width="230" height="360" rx="24" fill="url(#glass)" stroke="white" stroke-opacity="0.24"/>
    <rect x="318" y="126" width="420" height="452" rx="28" fill="url(#glass)" stroke="white" stroke-opacity="0.36"/>
    <rect x="772" y="150" width="450" height="404" rx="28" fill="url(#glass)" stroke="white" stroke-opacity="0.3"/>
  </g>

  <g font-family="Segoe UI, Microsoft YaHei, sans-serif">
    <g transform="translate(82 198)">
      <text fill="white" fill-opacity="0.56" font-size="13" font-weight="800" letter-spacing="1.4">EXECUTION</text>
      <g transform="translate(0 34)" font-size="15" font-weight="700">
        <rect width="174" height="38" rx="12" fill="white" fill-opacity="0.13"/>
        <circle cx="18" cy="19" r="5" fill="#A4FFDB"/>
        <text x="34" y="24" fill="white" fill-opacity="0.88">理解目标</text>
      </g>
      <g transform="translate(0 82)" font-size="15" font-weight="700">
        <rect width="174" height="38" rx="12" fill="white" fill-opacity="0.13"/>
        <circle cx="18" cy="19" r="5" fill="#A4FFDB"/>
        <text x="34" y="24" fill="white" fill-opacity="0.88">定位联系人</text>
      </g>
      <g transform="translate(0 130)" font-size="15" font-weight="700">
        <rect width="174" height="38" rx="12" fill="white" fill-opacity="0.13"/>
        <circle cx="18" cy="19" r="5" fill="#A4FFDB"/>
        <text x="34" y="24" fill="white" fill-opacity="0.88">调用应用</text>
      </g>
      <g transform="translate(0 178)" font-size="15" font-weight="700">
        <rect width="174" height="38" rx="12" fill="white" fill-opacity="0.18"/>
        <circle cx="18" cy="19" r="5" fill="none" stroke="white" stroke-opacity="0.8"/>
        <text x="34" y="24" fill="white">等待确认</text>
      </g>
    </g>

    <g transform="translate(356 168)">
      <rect width="132" height="34" rx="17" fill="white" fill-opacity="0.14" stroke="white" stroke-opacity="0.18"/>
      <circle cx="18" cy="17" r="5" fill="#A4FFDB"/>
      <text x="34" y="22" fill="white" fill-opacity="0.78" font-size="13" font-weight="800">System Ready</text>

      <text x="0" y="116" fill="white" fill-opacity="0.5" font-size="13" font-weight="900" letter-spacing="1.4">AIOS CORE</text>
      <text x="0" y="168" fill="white" font-size="46" font-weight="800">告诉张三，</text>
      <text x="0" y="224" fill="white" font-size="46" font-weight="800">今晚吃瓦香鸡</text>
      <text x="0" y="262" fill="white" fill-opacity="0.7" font-size="16">AIOS 识别意图，调起聊天应用，生成待确认消息。</text>

      <g transform="translate(0 326)">
        <rect width="340" height="62" rx="21" fill="white" fill-opacity="0.17" stroke="white" stroke-opacity="0.38"/>
        <rect x="12" y="8" width="46" height="46" rx="16" fill="#D875F1" fill-opacity="0.82"/>
        <text x="78" y="38" fill="white" fill-opacity="0.72" font-size="15" font-weight="700">输入系统目标...</text>
        <rect x="282" y="8" width="46" height="46" rx="16" fill="white" fill-opacity="0.22"/>
      </g>
    </g>

    <g transform="translate(812 190)">
      <g>
        <rect width="50" height="50" rx="16" fill="#26C77B"/>
        <text x="15" y="33" fill="white" font-size="20" font-weight="900">微</text>
        <text x="68" y="17" fill="white" fill-opacity="0.5" font-size="12" font-weight="900" letter-spacing="1.3">INVOKED APP</text>
        <text x="68" y="48" fill="white" font-size="29" font-weight="800">微信</text>
      </g>

      <g transform="translate(18 108)">
        <circle cx="17" cy="17" r="17" fill="white" fill-opacity="0.16"/>
        <text x="12" y="23" fill="white" font-size="14" font-weight="800">张</text>
        <rect x="48" y="0" width="170" height="44" rx="18" fill="white" fill-opacity="0.14" stroke="white" stroke-opacity="0.12"/>
        <text x="68" y="28" fill="white" fill-opacity="0.84" font-size="15">晚上吃什么？</text>
      </g>

      <g transform="translate(88 174)">
        <rect width="214" height="48" rx="18" fill="#A4FFDB" fill-opacity="0.18" stroke="#A4FFDB" stroke-opacity="0.38"/>
        <text x="20" y="30" fill="white" font-size="15" font-weight="700">今晚吃瓦香鸡。</text>
        <circle cx="252" cy="24" r="17" fill="white" fill-opacity="0.16"/>
        <text x="247" y="30" fill="white" font-size="14" font-weight="800">我</text>
      </g>

      <g transform="translate(0 274)">
        <rect width="370" height="86" rx="18" fill="white" fill-opacity="0.13" stroke="white" stroke-opacity="0.18"/>
        <text x="18" y="28" fill="white" fill-opacity="0.48" font-size="12" font-weight="900" letter-spacing="1.2">MESSAGE PREVIEW</text>
        <text x="18" y="56" fill="white" font-size="15" font-weight="800">发送给 张三：今晚吃瓦香鸡。</text>
        <rect x="270" y="25" width="82" height="38" rx="13" fill="white"/>
        <text x="286" y="49" fill="#2E7BB9" font-size="13" font-weight="900">确认发送</text>
      </g>
    </g>
  </g>
</svg>
